<svg version="1.2" xmlns="http://www.w3.org/2000/svg" viewBox="0 0 800 800"><style>.a{fill:none;stroke:#000;stroke-linecap:round;stroke-linejoin:round;stroke-width:66.7}.b{fill:none;stroke:#000;stroke-width:66.7}</style><path class="a" d="m464.3 687.1h-127.6l-17.6-79.1c-21.1-8.2-40.6-19.6-58-33.5l-77.3 24.3-63.8-110.5 59.7-54.8c-1.6-10.9-2.5-22.1-2.5-33.5 0-11.3 0.9-22.5 2.5-33.5l-59.7-54.7 63.8-110.5 77.3 24.3c17.4-13.9 36.9-25.3 58-33.5l17.6-79.1h127.6l17.5 79.1c21.1 8.2 40.6 19.6 58 33.5l77.4-24.3 63.8 110.5-59.8 54.7c1.7 11 2.5 22.2 2.5 33.5 0 11.4-0.8 22.6-2.5 33.5l59.8 54.8-63.8 110.5-77.4-24.3c-17.3 13.9-36.9 25.3-58 33.5z"/><path fill-rule="evenodd" class="b" d="m400.5 495.7c-52.9 0-95.7-42.7-95.7-95.7 0-52.9 42.8-95.6 95.7-95.6 52.9 0 95.7 42.7 95.7 95.6 0 53-42.8 95.7-95.7 95.7z"/></svg>