<svg version="1.2" xmlns="http://www.w3.org/2000/svg" viewBox="0 0 800 800" width="800" height="800"><style>.a{fill:none;stroke:#000;stroke-linecap:round;stroke-linejoin:round;stroke-width:66.7}</style><path class="a" d="m494 494c103.6 0 187.5-83.9 187.5-187.5 0-103.6-83.9-187.5-187.5-187.5-103.6 0-187.5 83.9-187.5 187.5 0 18.9 2.8 37.2 8 54.5l-8 8-178.3 178.3c-5.9 5.9-9.2 13.9-9.2 22.1v80.9c0 17.2 14 31.2 31.3 31.2h62.5c17.2 0 31.2-14 31.2-31.2 0-17.3 14-31.3 31.3-31.3 17.2 0 31.2-14 31.2-31.2 0-17.3 14-31.3 31.3-31.3h18.3c8.2 0 16.2-3.3 22.1-9.2l53.3-53.3 8-8c17.3 5.2 35.6 8 54.5 8z"/><path fill-rule="evenodd" class="a" d="m556.5 306.5c0-34.5-28-62.5-62.5-62.5"/></svg>