<svg version="1.2" xmlns="http://www.w3.org/2000/svg" viewBox="0 0 800 800"><style>.a{fill:none;stroke:#000;stroke-linecap:round;stroke-linejoin:round;stroke-width:66.7}</style><path fill-rule="evenodd" class="a" d="m399.7 693.3c-162.4 0-293.7-131.2-293.7-293.6 0-162.4 131.3-293.7 293.7-293.7 162.4 0 293.6 131.3 293.6 293.7 0 162.4-131.2 293.6-293.6 293.6z"/><path fill-rule="evenodd" class="a" d="m399.7 517.1h29.3c32.5 0 58.8-26.3 58.8-58.7 0-32.4-26.3-58.7-58.8-58.7h-58.7c-32.4 0-58.7-26.3-58.7-58.8 0-32.4 26.3-58.7 58.7-58.7h29.4m-88.1 234.9h88.1m88.1-234.9h-88.1m0 234.9v58.8m0-293.7v-58.7"/></svg>